<mxfile host="app.diagrams.net" modified="2023-11-24T14:39:26.112Z" agent="Mozilla/5.0 (Windows NT 10.0; Win64; x64) AppleWebKit/537.36 (KHTML, like Gecko) Chrome/117.0.0.0 Safari/537.36 Edg/117.0.2045.60" etag="qErtEFdVVujQmDhldLW7" version="22.1.3" type="github">
  <diagram name="Page-1" id="edf60f1a-56cd-e834-aa8a-f176f3a09ee4">
    <mxGraphModel dx="1626" dy="759" grid="1" gridSize="10" guides="1" tooltips="1" connect="1" arrows="1" fold="1" page="1" pageScale="1" pageWidth="1100" pageHeight="850" background="none" math="0" shadow="0">
      <root>
        <mxCell id="0" />
        <mxCell id="1" parent="0" />
        <mxCell id="bLF5GKP89D4P4g6-5xL7-8" style="edgeStyle=orthogonalEdgeStyle;rounded=0;orthogonalLoop=1;jettySize=auto;html=1;exitX=0.5;exitY=1;exitDx=0;exitDy=0;entryX=0.5;entryY=0;entryDx=0;entryDy=0;" edge="1" parent="1" source="bLF5GKP89D4P4g6-5xL7-1" target="bLF5GKP89D4P4g6-5xL7-4">
          <mxGeometry relative="1" as="geometry" />
        </mxCell>
        <mxCell id="bLF5GKP89D4P4g6-5xL7-1" value="Full Program" style="rounded=1;whiteSpace=wrap;html=1;" vertex="1" parent="1">
          <mxGeometry x="90" y="40" width="120" height="60" as="geometry" />
        </mxCell>
        <mxCell id="bLF5GKP89D4P4g6-5xL7-10" style="edgeStyle=orthogonalEdgeStyle;rounded=0;orthogonalLoop=1;jettySize=auto;html=1;exitX=0.5;exitY=1;exitDx=0;exitDy=0;entryX=0.5;entryY=0;entryDx=0;entryDy=0;" edge="1" parent="1" source="bLF5GKP89D4P4g6-5xL7-2" target="bLF5GKP89D4P4g6-5xL7-3">
          <mxGeometry relative="1" as="geometry" />
        </mxCell>
        <mxCell id="bLF5GKP89D4P4g6-5xL7-2" value="Set Current epoch to 0" style="shape=parallelogram;perimeter=parallelogramPerimeter;whiteSpace=wrap;html=1;fixedSize=1;" vertex="1" parent="1">
          <mxGeometry x="60" y="200" width="180" height="60" as="geometry" />
        </mxCell>
        <mxCell id="bLF5GKP89D4P4g6-5xL7-11" style="edgeStyle=orthogonalEdgeStyle;rounded=0;orthogonalLoop=1;jettySize=auto;html=1;exitX=0.5;exitY=1;exitDx=0;exitDy=0;entryX=0.5;entryY=0;entryDx=0;entryDy=0;" edge="1" parent="1" source="bLF5GKP89D4P4g6-5xL7-3" target="bLF5GKP89D4P4g6-5xL7-5">
          <mxGeometry relative="1" as="geometry" />
        </mxCell>
        <mxCell id="bLF5GKP89D4P4g6-5xL7-3" value="AllocateGroups" style="shape=process;whiteSpace=wrap;html=1;backgroundOutline=1;" vertex="1" parent="1">
          <mxGeometry x="35" y="280" width="230" height="60" as="geometry" />
        </mxCell>
        <mxCell id="bLF5GKP89D4P4g6-5xL7-9" style="edgeStyle=orthogonalEdgeStyle;rounded=0;orthogonalLoop=1;jettySize=auto;html=1;exitX=0.5;exitY=1;exitDx=0;exitDy=0;entryX=0.5;entryY=0;entryDx=0;entryDy=0;" edge="1" parent="1" source="bLF5GKP89D4P4g6-5xL7-4" target="bLF5GKP89D4P4g6-5xL7-2">
          <mxGeometry relative="1" as="geometry" />
        </mxCell>
        <mxCell id="bLF5GKP89D4P4g6-5xL7-4" value="Initialisation" style="shape=process;whiteSpace=wrap;html=1;backgroundOutline=1;" vertex="1" parent="1">
          <mxGeometry x="35" y="120" width="230" height="60" as="geometry" />
        </mxCell>
        <mxCell id="bLF5GKP89D4P4g6-5xL7-12" style="edgeStyle=orthogonalEdgeStyle;rounded=0;orthogonalLoop=1;jettySize=auto;html=1;exitX=0.5;exitY=1;exitDx=0;exitDy=0;entryX=0.5;entryY=0;entryDx=0;entryDy=0;" edge="1" parent="1" source="bLF5GKP89D4P4g6-5xL7-5" target="bLF5GKP89D4P4g6-5xL7-6">
          <mxGeometry relative="1" as="geometry" />
        </mxCell>
        <mxCell id="bLF5GKP89D4P4g6-5xL7-5" value="moveMedoid" style="shape=process;whiteSpace=wrap;html=1;backgroundOutline=1;" vertex="1" parent="1">
          <mxGeometry x="35" y="360" width="230" height="60" as="geometry" />
        </mxCell>
        <mxCell id="bLF5GKP89D4P4g6-5xL7-13" style="edgeStyle=orthogonalEdgeStyle;rounded=0;orthogonalLoop=1;jettySize=auto;html=1;exitX=0.5;exitY=1;exitDx=0;exitDy=0;entryX=0.5;entryY=0;entryDx=0;entryDy=0;" edge="1" parent="1" source="bLF5GKP89D4P4g6-5xL7-6" target="bLF5GKP89D4P4g6-5xL7-7">
          <mxGeometry relative="1" as="geometry" />
        </mxCell>
        <mxCell id="bLF5GKP89D4P4g6-5xL7-6" value="Add 1 to current epoch" style="shape=parallelogram;perimeter=parallelogramPerimeter;whiteSpace=wrap;html=1;fixedSize=1;" vertex="1" parent="1">
          <mxGeometry x="60" y="440" width="180" height="60" as="geometry" />
        </mxCell>
        <mxCell id="bLF5GKP89D4P4g6-5xL7-14" style="edgeStyle=orthogonalEdgeStyle;rounded=0;orthogonalLoop=1;jettySize=auto;html=1;exitX=1;exitY=0.5;exitDx=0;exitDy=0;entryX=1;entryY=0.5;entryDx=0;entryDy=0;" edge="1" parent="1" source="bLF5GKP89D4P4g6-5xL7-7" target="bLF5GKP89D4P4g6-5xL7-3">
          <mxGeometry relative="1" as="geometry">
            <Array as="points">
              <mxPoint x="430" y="605" />
              <mxPoint x="430" y="310" />
            </Array>
          </mxGeometry>
        </mxCell>
        <mxCell id="bLF5GKP89D4P4g6-5xL7-7" value="Is current epoch less than total epochs" style="rhombus;whiteSpace=wrap;html=1;" vertex="1" parent="1">
          <mxGeometry x="70" y="520" width="160" height="170" as="geometry" />
        </mxCell>
        <mxCell id="bLF5GKP89D4P4g6-5xL7-15" value="Yes" style="text;html=1;strokeColor=none;fillColor=none;align=center;verticalAlign=middle;whiteSpace=wrap;rounded=0;" vertex="1" parent="1">
          <mxGeometry x="230" y="570" width="60" height="30" as="geometry" />
        </mxCell>
        <mxCell id="bLF5GKP89D4P4g6-5xL7-16" value="No" style="text;html=1;strokeColor=none;fillColor=none;align=center;verticalAlign=middle;whiteSpace=wrap;rounded=0;" vertex="1" parent="1">
          <mxGeometry x="150" y="690" width="60" height="30" as="geometry" />
        </mxCell>
        <mxCell id="bLF5GKP89D4P4g6-5xL7-20" style="edgeStyle=orthogonalEdgeStyle;rounded=0;orthogonalLoop=1;jettySize=auto;html=1;exitX=0.5;exitY=1;exitDx=0;exitDy=0;entryX=0.5;entryY=0;entryDx=0;entryDy=0;" edge="1" parent="1" source="bLF5GKP89D4P4g6-5xL7-17" target="bLF5GKP89D4P4g6-5xL7-19">
          <mxGeometry relative="1" as="geometry" />
        </mxCell>
        <mxCell id="bLF5GKP89D4P4g6-5xL7-17" value="AllocateGroups" style="shape=process;whiteSpace=wrap;html=1;backgroundOutline=1;" vertex="1" parent="1">
          <mxGeometry x="35" y="720" width="230" height="60" as="geometry" />
        </mxCell>
        <mxCell id="bLF5GKP89D4P4g6-5xL7-18" style="edgeStyle=orthogonalEdgeStyle;rounded=0;orthogonalLoop=1;jettySize=auto;html=1;exitX=0;exitY=0;exitDx=0;exitDy=0;entryX=0;entryY=1;entryDx=0;entryDy=0;" edge="1" parent="1" source="bLF5GKP89D4P4g6-5xL7-16" target="bLF5GKP89D4P4g6-5xL7-16">
          <mxGeometry relative="1" as="geometry" />
        </mxCell>
        <mxCell id="bLF5GKP89D4P4g6-5xL7-19" value="End" style="ellipse;whiteSpace=wrap;html=1;" vertex="1" parent="1">
          <mxGeometry x="90" y="810" width="120" height="80" as="geometry" />
        </mxCell>
        <mxCell id="bLF5GKP89D4P4g6-5xL7-33" style="edgeStyle=orthogonalEdgeStyle;rounded=0;orthogonalLoop=1;jettySize=auto;html=1;exitX=0.5;exitY=1;exitDx=0;exitDy=0;entryX=0.5;entryY=0;entryDx=0;entryDy=0;" edge="1" parent="1" source="bLF5GKP89D4P4g6-5xL7-21" target="bLF5GKP89D4P4g6-5xL7-22">
          <mxGeometry relative="1" as="geometry" />
        </mxCell>
        <mxCell id="bLF5GKP89D4P4g6-5xL7-21" value="Initialisation" style="rounded=1;whiteSpace=wrap;html=1;" vertex="1" parent="1">
          <mxGeometry x="570" y="40" width="120" height="60" as="geometry" />
        </mxCell>
        <mxCell id="bLF5GKP89D4P4g6-5xL7-22" value="noOfGroups&lt;br&gt;USER INPUT" style="shape=parallelogram;perimeter=parallelogramPerimeter;whiteSpace=wrap;html=1;fixedSize=1;" vertex="1" parent="1">
          <mxGeometry x="555" y="120" width="150" height="60" as="geometry" />
        </mxCell>
        <mxCell id="bLF5GKP89D4P4g6-5xL7-35" style="edgeStyle=orthogonalEdgeStyle;rounded=0;orthogonalLoop=1;jettySize=auto;html=1;exitX=0.5;exitY=1;exitDx=0;exitDy=0;entryX=0.5;entryY=0;entryDx=0;entryDy=0;" edge="1" parent="1" source="bLF5GKP89D4P4g6-5xL7-23" target="bLF5GKP89D4P4g6-5xL7-24">
          <mxGeometry relative="1" as="geometry" />
        </mxCell>
        <mxCell id="bLF5GKP89D4P4g6-5xL7-23" value="totalEpochs&lt;br&gt;USER INPUT" style="shape=parallelogram;perimeter=parallelogramPerimeter;whiteSpace=wrap;html=1;fixedSize=1;" vertex="1" parent="1">
          <mxGeometry x="550" y="200" width="150" height="60" as="geometry" />
        </mxCell>
        <mxCell id="bLF5GKP89D4P4g6-5xL7-36" style="edgeStyle=orthogonalEdgeStyle;rounded=0;orthogonalLoop=1;jettySize=auto;html=1;exitX=0.5;exitY=1;exitDx=0;exitDy=0;entryX=0.5;entryY=0;entryDx=0;entryDy=0;" edge="1" parent="1" source="bLF5GKP89D4P4g6-5xL7-24" target="bLF5GKP89D4P4g6-5xL7-25">
          <mxGeometry relative="1" as="geometry" />
        </mxCell>
        <mxCell id="bLF5GKP89D4P4g6-5xL7-24" value="Array of medoids of amount noOfGroups" style="shape=parallelogram;perimeter=parallelogramPerimeter;whiteSpace=wrap;html=1;fixedSize=1;" vertex="1" parent="1">
          <mxGeometry x="520" y="280" width="200" height="60" as="geometry" />
        </mxCell>
        <mxCell id="bLF5GKP89D4P4g6-5xL7-37" style="edgeStyle=orthogonalEdgeStyle;rounded=0;orthogonalLoop=1;jettySize=auto;html=1;exitX=0.5;exitY=1;exitDx=0;exitDy=0;entryX=0.5;entryY=0;entryDx=0;entryDy=0;" edge="1" parent="1" source="bLF5GKP89D4P4g6-5xL7-25" target="bLF5GKP89D4P4g6-5xL7-26">
          <mxGeometry relative="1" as="geometry" />
        </mxCell>
        <mxCell id="bLF5GKP89D4P4g6-5xL7-25" value="Array of data objects either user input or other input" style="shape=parallelogram;perimeter=parallelogramPerimeter;whiteSpace=wrap;html=1;fixedSize=1;" vertex="1" parent="1">
          <mxGeometry x="520" y="360" width="200" height="60" as="geometry" />
        </mxCell>
        <mxCell id="bLF5GKP89D4P4g6-5xL7-38" style="edgeStyle=orthogonalEdgeStyle;rounded=0;orthogonalLoop=1;jettySize=auto;html=1;exitX=0.5;exitY=1;exitDx=0;exitDy=0;entryX=0.5;entryY=0;entryDx=0;entryDy=0;" edge="1" parent="1" source="bLF5GKP89D4P4g6-5xL7-26" target="bLF5GKP89D4P4g6-5xL7-27">
          <mxGeometry relative="1" as="geometry" />
        </mxCell>
        <mxCell id="bLF5GKP89D4P4g6-5xL7-26" value="set current group to 0" style="shape=parallelogram;perimeter=parallelogramPerimeter;whiteSpace=wrap;html=1;fixedSize=1;" vertex="1" parent="1">
          <mxGeometry x="545" y="440" width="150" height="60" as="geometry" />
        </mxCell>
        <mxCell id="bLF5GKP89D4P4g6-5xL7-39" style="edgeStyle=orthogonalEdgeStyle;rounded=0;orthogonalLoop=1;jettySize=auto;html=1;exitX=0.5;exitY=1;exitDx=0;exitDy=0;entryX=0.5;entryY=0;entryDx=0;entryDy=0;" edge="1" parent="1" source="bLF5GKP89D4P4g6-5xL7-27" target="bLF5GKP89D4P4g6-5xL7-28">
          <mxGeometry relative="1" as="geometry" />
        </mxCell>
        <mxCell id="bLF5GKP89D4P4g6-5xL7-27" value="set medoid of current group position &lt;br&gt;&quot;x&quot; and &quot;y&quot; with manual input&lt;br&gt;set medoid group to current group" style="shape=parallelogram;perimeter=parallelogramPerimeter;whiteSpace=wrap;html=1;fixedSize=1;" vertex="1" parent="1">
          <mxGeometry x="500" y="520" width="240" height="80" as="geometry" />
        </mxCell>
        <mxCell id="bLF5GKP89D4P4g6-5xL7-40" style="edgeStyle=orthogonalEdgeStyle;rounded=0;orthogonalLoop=1;jettySize=auto;html=1;exitX=0.5;exitY=1;exitDx=0;exitDy=0;entryX=0.5;entryY=0;entryDx=0;entryDy=0;" edge="1" parent="1" source="bLF5GKP89D4P4g6-5xL7-28" target="bLF5GKP89D4P4g6-5xL7-29">
          <mxGeometry relative="1" as="geometry" />
        </mxCell>
        <mxCell id="bLF5GKP89D4P4g6-5xL7-28" value="add 1 to current group" style="shape=parallelogram;perimeter=parallelogramPerimeter;whiteSpace=wrap;html=1;fixedSize=1;" vertex="1" parent="1">
          <mxGeometry x="540" y="620" width="150" height="60" as="geometry" />
        </mxCell>
        <mxCell id="bLF5GKP89D4P4g6-5xL7-30" style="edgeStyle=orthogonalEdgeStyle;rounded=0;orthogonalLoop=1;jettySize=auto;html=1;exitX=1;exitY=0.5;exitDx=0;exitDy=0;entryX=1;entryY=0.5;entryDx=0;entryDy=0;" edge="1" parent="1" source="bLF5GKP89D4P4g6-5xL7-29" target="bLF5GKP89D4P4g6-5xL7-27">
          <mxGeometry relative="1" as="geometry">
            <Array as="points">
              <mxPoint x="860" y="785" />
              <mxPoint x="860" y="560" />
            </Array>
          </mxGeometry>
        </mxCell>
        <mxCell id="bLF5GKP89D4P4g6-5xL7-42" style="edgeStyle=orthogonalEdgeStyle;rounded=0;orthogonalLoop=1;jettySize=auto;html=1;exitX=0.5;exitY=1;exitDx=0;exitDy=0;entryX=0.5;entryY=0;entryDx=0;entryDy=0;" edge="1" parent="1" source="bLF5GKP89D4P4g6-5xL7-29" target="bLF5GKP89D4P4g6-5xL7-41">
          <mxGeometry relative="1" as="geometry" />
        </mxCell>
        <mxCell id="bLF5GKP89D4P4g6-5xL7-29" value="is current group less than&lt;br&gt;noOfGroups" style="rhombus;whiteSpace=wrap;html=1;" vertex="1" parent="1">
          <mxGeometry x="535" y="700" width="160" height="170" as="geometry" />
        </mxCell>
        <mxCell id="bLF5GKP89D4P4g6-5xL7-31" value="Yes" style="text;html=1;strokeColor=none;fillColor=none;align=center;verticalAlign=middle;whiteSpace=wrap;rounded=0;" vertex="1" parent="1">
          <mxGeometry x="700" y="760" width="60" height="30" as="geometry" />
        </mxCell>
        <mxCell id="bLF5GKP89D4P4g6-5xL7-32" value="No" style="text;html=1;strokeColor=none;fillColor=none;align=center;verticalAlign=middle;whiteSpace=wrap;rounded=0;" vertex="1" parent="1">
          <mxGeometry x="610" y="870" width="60" height="30" as="geometry" />
        </mxCell>
        <mxCell id="bLF5GKP89D4P4g6-5xL7-34" style="edgeStyle=orthogonalEdgeStyle;rounded=0;orthogonalLoop=1;jettySize=auto;html=1;exitX=0.5;exitY=1;exitDx=0;exitDy=0;entryX=0.552;entryY=0.002;entryDx=0;entryDy=0;entryPerimeter=0;" edge="1" parent="1" source="bLF5GKP89D4P4g6-5xL7-22" target="bLF5GKP89D4P4g6-5xL7-23">
          <mxGeometry relative="1" as="geometry" />
        </mxCell>
        <mxCell id="bLF5GKP89D4P4g6-5xL7-41" value="End" style="ellipse;whiteSpace=wrap;html=1;" vertex="1" parent="1">
          <mxGeometry x="555" y="900" width="120" height="80" as="geometry" />
        </mxCell>
        <mxCell id="bLF5GKP89D4P4g6-5xL7-49" style="edgeStyle=orthogonalEdgeStyle;rounded=0;orthogonalLoop=1;jettySize=auto;html=1;exitX=0.5;exitY=1;exitDx=0;exitDy=0;entryX=0.5;entryY=0;entryDx=0;entryDy=0;" edge="1" parent="1" source="bLF5GKP89D4P4g6-5xL7-43">
          <mxGeometry relative="1" as="geometry">
            <mxPoint x="1185" y="100" as="targetPoint" />
          </mxGeometry>
        </mxCell>
        <mxCell id="bLF5GKP89D4P4g6-5xL7-43" value="Allocate Groups" style="rounded=1;whiteSpace=wrap;html=1;" vertex="1" parent="1">
          <mxGeometry x="1130" y="20" width="120" height="60" as="geometry" />
        </mxCell>
        <mxCell id="bLF5GKP89D4P4g6-5xL7-63" style="edgeStyle=orthogonalEdgeStyle;rounded=0;orthogonalLoop=1;jettySize=auto;html=1;exitX=0.5;exitY=1;exitDx=0;exitDy=0;entryX=0.5;entryY=0;entryDx=0;entryDy=0;" edge="1" parent="1" source="bLF5GKP89D4P4g6-5xL7-45" target="bLF5GKP89D4P4g6-5xL7-62">
          <mxGeometry relative="1" as="geometry" />
        </mxCell>
        <mxCell id="bLF5GKP89D4P4g6-5xL7-45" value="set current group to 0" style="shape=parallelogram;perimeter=parallelogramPerimeter;whiteSpace=wrap;html=1;fixedSize=1;" vertex="1" parent="1">
          <mxGeometry x="1110" y="100" width="150" height="60" as="geometry" />
        </mxCell>
        <mxCell id="bLF5GKP89D4P4g6-5xL7-52" style="edgeStyle=orthogonalEdgeStyle;rounded=0;orthogonalLoop=1;jettySize=auto;html=1;exitX=0.5;exitY=1;exitDx=0;exitDy=0;entryX=0.5;entryY=0;entryDx=0;entryDy=0;" edge="1" parent="1" source="bLF5GKP89D4P4g6-5xL7-46" target="bLF5GKP89D4P4g6-5xL7-51">
          <mxGeometry relative="1" as="geometry" />
        </mxCell>
        <mxCell id="bLF5GKP89D4P4g6-5xL7-46" value="set potential Euclidean to &lt;br&gt;value using &quot;calculate Euclidean&quot;&lt;br&gt;from current data object and current &lt;br&gt;group medoid x and y positions" style="shape=parallelogram;perimeter=parallelogramPerimeter;whiteSpace=wrap;html=1;fixedSize=1;" vertex="1" parent="1">
          <mxGeometry x="1070" y="280" width="230" height="80" as="geometry" />
        </mxCell>
        <mxCell id="bLF5GKP89D4P4g6-5xL7-48" style="edgeStyle=orthogonalEdgeStyle;rounded=0;orthogonalLoop=1;jettySize=auto;html=1;exitX=0;exitY=0.5;exitDx=0;exitDy=0;entryX=1;entryY=0.5;entryDx=0;entryDy=0;" edge="1" parent="1" source="bLF5GKP89D4P4g6-5xL7-47" target="bLF5GKP89D4P4g6-5xL7-46">
          <mxGeometry relative="1" as="geometry" />
        </mxCell>
        <mxCell id="bLF5GKP89D4P4g6-5xL7-47" value="Calculate Euclidean" style="shape=process;whiteSpace=wrap;html=1;backgroundOutline=1;" vertex="1" parent="1">
          <mxGeometry x="1330" y="290" width="120" height="60" as="geometry" />
        </mxCell>
        <mxCell id="bLF5GKP89D4P4g6-5xL7-53" style="edgeStyle=orthogonalEdgeStyle;rounded=0;orthogonalLoop=1;jettySize=auto;html=1;exitX=1;exitY=0.5;exitDx=0;exitDy=0;" edge="1" parent="1" source="bLF5GKP89D4P4g6-5xL7-51" target="bLF5GKP89D4P4g6-5xL7-54">
          <mxGeometry relative="1" as="geometry">
            <mxPoint x="1330" y="455" as="targetPoint" />
          </mxGeometry>
        </mxCell>
        <mxCell id="bLF5GKP89D4P4g6-5xL7-59" style="edgeStyle=orthogonalEdgeStyle;rounded=0;orthogonalLoop=1;jettySize=auto;html=1;exitX=0.5;exitY=1;exitDx=0;exitDy=0;entryX=0.5;entryY=0;entryDx=0;entryDy=0;" edge="1" parent="1" source="bLF5GKP89D4P4g6-5xL7-51" target="bLF5GKP89D4P4g6-5xL7-58">
          <mxGeometry relative="1" as="geometry" />
        </mxCell>
        <mxCell id="bLF5GKP89D4P4g6-5xL7-51" value="Is potential Euclidean &lt;br&gt;less than current&lt;br&gt;Euclidean?" style="rhombus;whiteSpace=wrap;html=1;" vertex="1" parent="1">
          <mxGeometry x="1100" y="380" width="170" height="150" as="geometry" />
        </mxCell>
        <mxCell id="bLF5GKP89D4P4g6-5xL7-56" style="edgeStyle=orthogonalEdgeStyle;rounded=0;orthogonalLoop=1;jettySize=auto;html=1;exitX=0.5;exitY=1;exitDx=0;exitDy=0;entryX=0.5;entryY=0;entryDx=0;entryDy=0;" edge="1" parent="1" source="bLF5GKP89D4P4g6-5xL7-54" target="bLF5GKP89D4P4g6-5xL7-55">
          <mxGeometry relative="1" as="geometry" />
        </mxCell>
        <mxCell id="bLF5GKP89D4P4g6-5xL7-54" value="Assign new &lt;br&gt;euclidean" style="shape=parallelogram;perimeter=parallelogramPerimeter;whiteSpace=wrap;html=1;fixedSize=1;" vertex="1" parent="1">
          <mxGeometry x="1320" y="425" width="120" height="60" as="geometry" />
        </mxCell>
        <mxCell id="bLF5GKP89D4P4g6-5xL7-60" style="edgeStyle=orthogonalEdgeStyle;rounded=0;orthogonalLoop=1;jettySize=auto;html=1;exitX=0.5;exitY=1;exitDx=0;exitDy=0;entryX=0.5;entryY=0;entryDx=0;entryDy=0;" edge="1" parent="1" source="bLF5GKP89D4P4g6-5xL7-55" target="bLF5GKP89D4P4g6-5xL7-58">
          <mxGeometry relative="1" as="geometry" />
        </mxCell>
        <mxCell id="bLF5GKP89D4P4g6-5xL7-55" value="Assign new &lt;br&gt;group to equal&lt;br&gt;current group" style="shape=parallelogram;perimeter=parallelogramPerimeter;whiteSpace=wrap;html=1;fixedSize=1;" vertex="1" parent="1">
          <mxGeometry x="1310" y="510" width="120" height="60" as="geometry" />
        </mxCell>
        <mxCell id="bLF5GKP89D4P4g6-5xL7-74" style="edgeStyle=orthogonalEdgeStyle;rounded=0;orthogonalLoop=1;jettySize=auto;html=1;exitX=0.5;exitY=1;exitDx=0;exitDy=0;entryX=0.5;entryY=0;entryDx=0;entryDy=0;" edge="1" parent="1" source="bLF5GKP89D4P4g6-5xL7-57" target="bLF5GKP89D4P4g6-5xL7-67">
          <mxGeometry relative="1" as="geometry" />
        </mxCell>
        <mxCell id="bLF5GKP89D4P4g6-5xL7-57" value="add one to &lt;br&gt;current group" style="shape=parallelogram;perimeter=parallelogramPerimeter;whiteSpace=wrap;html=1;fixedSize=1;" vertex="1" parent="1">
          <mxGeometry x="1125" y="780" width="120" height="60" as="geometry" />
        </mxCell>
        <mxCell id="bLF5GKP89D4P4g6-5xL7-65" style="edgeStyle=orthogonalEdgeStyle;rounded=0;orthogonalLoop=1;jettySize=auto;html=1;exitX=1;exitY=0.5;exitDx=0;exitDy=0;entryX=1;entryY=0.5;entryDx=0;entryDy=0;" edge="1" parent="1" source="bLF5GKP89D4P4g6-5xL7-58" target="bLF5GKP89D4P4g6-5xL7-62">
          <mxGeometry relative="1" as="geometry">
            <Array as="points">
              <mxPoint x="1530" y="685" />
              <mxPoint x="1530" y="230" />
            </Array>
          </mxGeometry>
        </mxCell>
        <mxCell id="bLF5GKP89D4P4g6-5xL7-66" style="edgeStyle=orthogonalEdgeStyle;rounded=0;orthogonalLoop=1;jettySize=auto;html=1;exitX=0.5;exitY=1;exitDx=0;exitDy=0;entryX=0.5;entryY=0;entryDx=0;entryDy=0;" edge="1" parent="1" source="bLF5GKP89D4P4g6-5xL7-58" target="bLF5GKP89D4P4g6-5xL7-57">
          <mxGeometry relative="1" as="geometry" />
        </mxCell>
        <mxCell id="bLF5GKP89D4P4g6-5xL7-58" value="Have all data&lt;br&gt;objects been iterated&lt;br&gt;through" style="rhombus;whiteSpace=wrap;html=1;" vertex="1" parent="1">
          <mxGeometry x="1100" y="610" width="170" height="150" as="geometry" />
        </mxCell>
        <mxCell id="bLF5GKP89D4P4g6-5xL7-61" value="Yes" style="text;html=1;strokeColor=none;fillColor=none;align=center;verticalAlign=middle;whiteSpace=wrap;rounded=0;" vertex="1" parent="1">
          <mxGeometry x="1270" y="430" width="60" height="30" as="geometry" />
        </mxCell>
        <mxCell id="bLF5GKP89D4P4g6-5xL7-64" style="edgeStyle=orthogonalEdgeStyle;rounded=0;orthogonalLoop=1;jettySize=auto;html=1;exitX=0.5;exitY=1;exitDx=0;exitDy=0;entryX=0.5;entryY=0;entryDx=0;entryDy=0;" edge="1" parent="1" source="bLF5GKP89D4P4g6-5xL7-62" target="bLF5GKP89D4P4g6-5xL7-46">
          <mxGeometry relative="1" as="geometry" />
        </mxCell>
        <mxCell id="bLF5GKP89D4P4g6-5xL7-62" value="Iterate through each&lt;br&gt;data object" style="rounded=0;whiteSpace=wrap;html=1;" vertex="1" parent="1">
          <mxGeometry x="1125" y="200" width="120" height="60" as="geometry" />
        </mxCell>
        <mxCell id="bLF5GKP89D4P4g6-5xL7-67" value="is current group&lt;br&gt;less than total&lt;br&gt;groups?" style="rhombus;whiteSpace=wrap;html=1;" vertex="1" parent="1">
          <mxGeometry x="1100" y="860" width="170" height="150" as="geometry" />
        </mxCell>
        <mxCell id="bLF5GKP89D4P4g6-5xL7-68" value="No" style="text;html=1;strokeColor=none;fillColor=none;align=center;verticalAlign=middle;whiteSpace=wrap;rounded=0;" vertex="1" parent="1">
          <mxGeometry x="1185" y="540" width="60" height="30" as="geometry" />
        </mxCell>
        <mxCell id="bLF5GKP89D4P4g6-5xL7-69" value="No" style="text;html=1;strokeColor=none;fillColor=none;align=center;verticalAlign=middle;whiteSpace=wrap;rounded=0;" vertex="1" parent="1">
          <mxGeometry x="1270" y="660" width="60" height="30" as="geometry" />
        </mxCell>
        <mxCell id="bLF5GKP89D4P4g6-5xL7-70" value="No" style="text;html=1;strokeColor=none;fillColor=none;align=center;verticalAlign=middle;whiteSpace=wrap;rounded=0;" vertex="1" parent="1">
          <mxGeometry x="1185" y="1010" width="60" height="30" as="geometry" />
        </mxCell>
        <mxCell id="bLF5GKP89D4P4g6-5xL7-71" value="Yes" style="text;html=1;strokeColor=none;fillColor=none;align=center;verticalAlign=middle;whiteSpace=wrap;rounded=0;" vertex="1" parent="1">
          <mxGeometry x="1180" y="750" width="60" height="30" as="geometry" />
        </mxCell>
        <mxCell id="bLF5GKP89D4P4g6-5xL7-73" style="edgeStyle=orthogonalEdgeStyle;rounded=0;orthogonalLoop=1;jettySize=auto;html=1;exitX=0;exitY=0.75;exitDx=0;exitDy=0;entryX=0.5;entryY=0;entryDx=0;entryDy=0;" edge="1" parent="1" source="bLF5GKP89D4P4g6-5xL7-72" target="bLF5GKP89D4P4g6-5xL7-62">
          <mxGeometry relative="1" as="geometry">
            <Array as="points">
              <mxPoint x="1560" y="933" />
              <mxPoint x="1560" y="180" />
              <mxPoint x="1185" y="180" />
            </Array>
          </mxGeometry>
        </mxCell>
        <mxCell id="bLF5GKP89D4P4g6-5xL7-72" value="Yes" style="text;html=1;strokeColor=none;fillColor=none;align=center;verticalAlign=middle;whiteSpace=wrap;rounded=0;" vertex="1" parent="1">
          <mxGeometry x="1270" y="910" width="60" height="30" as="geometry" />
        </mxCell>
        <mxCell id="bLF5GKP89D4P4g6-5xL7-75" value="End" style="ellipse;whiteSpace=wrap;html=1;" vertex="1" parent="1">
          <mxGeometry x="1125" y="1030" width="120" height="80" as="geometry" />
        </mxCell>
        <mxCell id="bLF5GKP89D4P4g6-5xL7-76" style="edgeStyle=orthogonalEdgeStyle;rounded=0;orthogonalLoop=1;jettySize=auto;html=1;exitX=0;exitY=0;exitDx=0;exitDy=0;entryX=0;entryY=0.75;entryDx=0;entryDy=0;" edge="1" parent="1" source="bLF5GKP89D4P4g6-5xL7-70" target="bLF5GKP89D4P4g6-5xL7-70">
          <mxGeometry relative="1" as="geometry" />
        </mxCell>
        <mxCell id="bLF5GKP89D4P4g6-5xL7-89" style="edgeStyle=orthogonalEdgeStyle;rounded=0;orthogonalLoop=1;jettySize=auto;html=1;exitX=0.5;exitY=1;exitDx=0;exitDy=0;entryX=0.5;entryY=0;entryDx=0;entryDy=0;" edge="1" parent="1" source="bLF5GKP89D4P4g6-5xL7-77" target="bLF5GKP89D4P4g6-5xL7-78">
          <mxGeometry relative="1" as="geometry" />
        </mxCell>
        <mxCell id="bLF5GKP89D4P4g6-5xL7-77" value="Calculate Euclidean" style="rounded=1;whiteSpace=wrap;html=1;" vertex="1" parent="1">
          <mxGeometry x="1750" y="40" width="120" height="60" as="geometry" />
        </mxCell>
        <mxCell id="bLF5GKP89D4P4g6-5xL7-90" style="edgeStyle=orthogonalEdgeStyle;rounded=0;orthogonalLoop=1;jettySize=auto;html=1;exitX=0.5;exitY=1;exitDx=0;exitDy=0;entryX=0.5;entryY=0;entryDx=0;entryDy=0;" edge="1" parent="1" source="bLF5GKP89D4P4g6-5xL7-78" target="bLF5GKP89D4P4g6-5xL7-82">
          <mxGeometry relative="1" as="geometry" />
        </mxCell>
        <mxCell id="bLF5GKP89D4P4g6-5xL7-78" value="objectPosnX = function&lt;br&gt;argument" style="shape=parallelogram;perimeter=parallelogramPerimeter;whiteSpace=wrap;html=1;fixedSize=1;" vertex="1" parent="1">
          <mxGeometry x="1750" y="120" width="120" height="60" as="geometry" />
        </mxCell>
        <mxCell id="bLF5GKP89D4P4g6-5xL7-91" style="edgeStyle=orthogonalEdgeStyle;rounded=0;orthogonalLoop=1;jettySize=auto;html=1;exitX=0.5;exitY=1;exitDx=0;exitDy=0;entryX=0.5;entryY=0;entryDx=0;entryDy=0;" edge="1" parent="1" source="bLF5GKP89D4P4g6-5xL7-82" target="bLF5GKP89D4P4g6-5xL7-83">
          <mxGeometry relative="1" as="geometry" />
        </mxCell>
        <mxCell id="bLF5GKP89D4P4g6-5xL7-82" value="objectPosnY = function&lt;br&gt;argument" style="shape=parallelogram;perimeter=parallelogramPerimeter;whiteSpace=wrap;html=1;fixedSize=1;" vertex="1" parent="1">
          <mxGeometry x="1750" y="200" width="120" height="60" as="geometry" />
        </mxCell>
        <mxCell id="bLF5GKP89D4P4g6-5xL7-92" style="edgeStyle=orthogonalEdgeStyle;rounded=0;orthogonalLoop=1;jettySize=auto;html=1;exitX=0.5;exitY=1;exitDx=0;exitDy=0;entryX=0.5;entryY=0;entryDx=0;entryDy=0;" edge="1" parent="1" source="bLF5GKP89D4P4g6-5xL7-83" target="bLF5GKP89D4P4g6-5xL7-84">
          <mxGeometry relative="1" as="geometry" />
        </mxCell>
        <mxCell id="bLF5GKP89D4P4g6-5xL7-83" value="medoidPosnX = function&lt;br&gt;argument" style="shape=parallelogram;perimeter=parallelogramPerimeter;whiteSpace=wrap;html=1;fixedSize=1;" vertex="1" parent="1">
          <mxGeometry x="1750" y="280" width="120" height="60" as="geometry" />
        </mxCell>
        <mxCell id="bLF5GKP89D4P4g6-5xL7-93" style="edgeStyle=orthogonalEdgeStyle;rounded=0;orthogonalLoop=1;jettySize=auto;html=1;exitX=0.5;exitY=1;exitDx=0;exitDy=0;entryX=0.5;entryY=0;entryDx=0;entryDy=0;" edge="1" parent="1" source="bLF5GKP89D4P4g6-5xL7-84" target="bLF5GKP89D4P4g6-5xL7-87">
          <mxGeometry relative="1" as="geometry" />
        </mxCell>
        <mxCell id="bLF5GKP89D4P4g6-5xL7-84" value="medoidPosnY = function&lt;br&gt;argument" style="shape=parallelogram;perimeter=parallelogramPerimeter;whiteSpace=wrap;html=1;fixedSize=1;" vertex="1" parent="1">
          <mxGeometry x="1750" y="360" width="120" height="60" as="geometry" />
        </mxCell>
        <mxCell id="bLF5GKP89D4P4g6-5xL7-190" style="edgeStyle=orthogonalEdgeStyle;rounded=0;orthogonalLoop=1;jettySize=auto;html=1;exitX=0.5;exitY=1;exitDx=0;exitDy=0;entryX=0.5;entryY=0;entryDx=0;entryDy=0;" edge="1" parent="1" source="bLF5GKP89D4P4g6-5xL7-87" target="bLF5GKP89D4P4g6-5xL7-189">
          <mxGeometry relative="1" as="geometry" />
        </mxCell>
        <mxCell id="bLF5GKP89D4P4g6-5xL7-87" value="Euclidean =&amp;nbsp;&lt;br&gt;Squareroot(&lt;br&gt;square(objectPosnX - medoidPosnX) +&amp;nbsp;&lt;br&gt;square(objectPosnY - medoidPosnY) )" style="shape=parallelogram;perimeter=parallelogramPerimeter;whiteSpace=wrap;html=1;fixedSize=1;" vertex="1" parent="1">
          <mxGeometry x="1680" y="440" width="260" height="80" as="geometry" />
        </mxCell>
        <mxCell id="bLF5GKP89D4P4g6-5xL7-88" value="End" style="ellipse;whiteSpace=wrap;html=1;" vertex="1" parent="1">
          <mxGeometry x="1750" y="625" width="120" height="80" as="geometry" />
        </mxCell>
        <mxCell id="bLF5GKP89D4P4g6-5xL7-121" style="edgeStyle=orthogonalEdgeStyle;rounded=0;orthogonalLoop=1;jettySize=auto;html=1;exitX=0.5;exitY=1;exitDx=0;exitDy=0;entryX=0.5;entryY=0;entryDx=0;entryDy=0;" edge="1" parent="1" source="bLF5GKP89D4P4g6-5xL7-96" target="bLF5GKP89D4P4g6-5xL7-98">
          <mxGeometry relative="1" as="geometry" />
        </mxCell>
        <mxCell id="bLF5GKP89D4P4g6-5xL7-96" value="MoveMedoid" style="rounded=1;whiteSpace=wrap;html=1;" vertex="1" parent="1">
          <mxGeometry x="2045" y="10" width="120" height="60" as="geometry" />
        </mxCell>
        <mxCell id="bLF5GKP89D4P4g6-5xL7-97" style="edgeStyle=orthogonalEdgeStyle;rounded=0;orthogonalLoop=1;jettySize=auto;html=1;exitX=0.5;exitY=1;exitDx=0;exitDy=0;entryX=0.5;entryY=0;entryDx=0;entryDy=0;" edge="1" parent="1" source="bLF5GKP89D4P4g6-5xL7-98" target="bLF5GKP89D4P4g6-5xL7-100">
          <mxGeometry relative="1" as="geometry" />
        </mxCell>
        <mxCell id="bLF5GKP89D4P4g6-5xL7-98" value="set current group&lt;br&gt;to 0" style="shape=parallelogram;perimeter=parallelogramPerimeter;whiteSpace=wrap;html=1;fixedSize=1;" vertex="1" parent="1">
          <mxGeometry x="2045" y="90" width="120" height="60" as="geometry" />
        </mxCell>
        <mxCell id="bLF5GKP89D4P4g6-5xL7-99" style="edgeStyle=orthogonalEdgeStyle;rounded=0;orthogonalLoop=1;jettySize=auto;html=1;exitX=0.5;exitY=1;exitDx=0;exitDy=0;entryX=0.5;entryY=0;entryDx=0;entryDy=0;" edge="1" parent="1" source="bLF5GKP89D4P4g6-5xL7-100" target="bLF5GKP89D4P4g6-5xL7-102">
          <mxGeometry relative="1" as="geometry" />
        </mxCell>
        <mxCell id="bLF5GKP89D4P4g6-5xL7-100" value="set &lt;br&gt;totalNoInGroup&lt;br style=&quot;border-color: var(--border-color);&quot;&gt;to 0" style="shape=parallelogram;perimeter=parallelogramPerimeter;whiteSpace=wrap;html=1;fixedSize=1;" vertex="1" parent="1">
          <mxGeometry x="2045" y="170" width="120" height="60" as="geometry" />
        </mxCell>
        <mxCell id="bLF5GKP89D4P4g6-5xL7-101" style="edgeStyle=orthogonalEdgeStyle;rounded=0;orthogonalLoop=1;jettySize=auto;html=1;exitX=0.5;exitY=1;exitDx=0;exitDy=0;entryX=0.5;entryY=0;entryDx=0;entryDy=0;" edge="1" parent="1" source="bLF5GKP89D4P4g6-5xL7-102" target="bLF5GKP89D4P4g6-5xL7-103">
          <mxGeometry relative="1" as="geometry" />
        </mxCell>
        <mxCell id="bLF5GKP89D4P4g6-5xL7-102" value="set groupSumX&lt;br style=&quot;border-color: var(--border-color);&quot;&gt;to 0" style="shape=parallelogram;perimeter=parallelogramPerimeter;whiteSpace=wrap;html=1;fixedSize=1;" vertex="1" parent="1">
          <mxGeometry x="2045" y="250" width="120" height="60" as="geometry" />
        </mxCell>
        <mxCell id="bLF5GKP89D4P4g6-5xL7-122" style="edgeStyle=orthogonalEdgeStyle;rounded=0;orthogonalLoop=1;jettySize=auto;html=1;exitX=0.5;exitY=1;exitDx=0;exitDy=0;entryX=0.5;entryY=0;entryDx=0;entryDy=0;" edge="1" parent="1" source="bLF5GKP89D4P4g6-5xL7-103" target="bLF5GKP89D4P4g6-5xL7-118">
          <mxGeometry relative="1" as="geometry" />
        </mxCell>
        <mxCell id="bLF5GKP89D4P4g6-5xL7-103" value="set groupSumY&lt;br style=&quot;border-color: var(--border-color);&quot;&gt;to 0" style="shape=parallelogram;perimeter=parallelogramPerimeter;whiteSpace=wrap;html=1;fixedSize=1;" vertex="1" parent="1">
          <mxGeometry x="2045" y="330" width="120" height="60" as="geometry" />
        </mxCell>
        <mxCell id="bLF5GKP89D4P4g6-5xL7-147" style="edgeStyle=orthogonalEdgeStyle;rounded=0;orthogonalLoop=1;jettySize=auto;html=1;exitX=0.5;exitY=1;exitDx=0;exitDy=0;entryX=0.5;entryY=0;entryDx=0;entryDy=0;" edge="1" parent="1" source="bLF5GKP89D4P4g6-5xL7-105" target="bLF5GKP89D4P4g6-5xL7-144">
          <mxGeometry relative="1" as="geometry" />
        </mxCell>
        <mxCell id="bLF5GKP89D4P4g6-5xL7-105" value="set potentialMedoidPosnX and Y&lt;br&gt;using calculate median from&lt;br&gt;the sum of x and y posns&lt;br&gt;and total count" style="shape=parallelogram;perimeter=parallelogramPerimeter;whiteSpace=wrap;html=1;fixedSize=1;" vertex="1" parent="1">
          <mxGeometry x="1990" y="1090" width="230" height="80" as="geometry" />
        </mxCell>
        <mxCell id="bLF5GKP89D4P4g6-5xL7-106" style="edgeStyle=orthogonalEdgeStyle;rounded=0;orthogonalLoop=1;jettySize=auto;html=1;exitX=0;exitY=0.5;exitDx=0;exitDy=0;entryX=1;entryY=0.5;entryDx=0;entryDy=0;" edge="1" parent="1" source="bLF5GKP89D4P4g6-5xL7-107" target="bLF5GKP89D4P4g6-5xL7-105">
          <mxGeometry relative="1" as="geometry" />
        </mxCell>
        <mxCell id="bLF5GKP89D4P4g6-5xL7-107" value="Calculate Median" style="shape=process;whiteSpace=wrap;html=1;backgroundOutline=1;" vertex="1" parent="1">
          <mxGeometry x="2260" y="1100" width="120" height="60" as="geometry" />
        </mxCell>
        <mxCell id="bLF5GKP89D4P4g6-5xL7-159" style="edgeStyle=orthogonalEdgeStyle;rounded=0;orthogonalLoop=1;jettySize=auto;html=1;exitX=1;exitY=0.5;exitDx=0;exitDy=0;entryX=0.5;entryY=1;entryDx=0;entryDy=0;" edge="1" parent="1" source="bLF5GKP89D4P4g6-5xL7-110" target="bLF5GKP89D4P4g6-5xL7-158">
          <mxGeometry relative="1" as="geometry" />
        </mxCell>
        <mxCell id="bLF5GKP89D4P4g6-5xL7-165" style="edgeStyle=orthogonalEdgeStyle;rounded=0;orthogonalLoop=1;jettySize=auto;html=1;exitX=0.5;exitY=1;exitDx=0;exitDy=0;entryX=0.5;entryY=0;entryDx=0;entryDy=0;" edge="1" parent="1" source="bLF5GKP89D4P4g6-5xL7-110" target="bLF5GKP89D4P4g6-5xL7-164">
          <mxGeometry relative="1" as="geometry" />
        </mxCell>
        <mxCell id="bLF5GKP89D4P4g6-5xL7-110" value="is current data group&lt;br&gt;less than total groups?" style="rhombus;whiteSpace=wrap;html=1;" vertex="1" parent="1">
          <mxGeometry x="2020" y="1490" width="170" height="150" as="geometry" />
        </mxCell>
        <mxCell id="bLF5GKP89D4P4g6-5xL7-168" style="edgeStyle=orthogonalEdgeStyle;rounded=0;orthogonalLoop=1;jettySize=auto;html=1;exitX=0.5;exitY=1;exitDx=0;exitDy=0;entryX=0.5;entryY=0;entryDx=0;entryDy=0;" edge="1" parent="1" source="bLF5GKP89D4P4g6-5xL7-112" target="bLF5GKP89D4P4g6-5xL7-140">
          <mxGeometry relative="1" as="geometry" />
        </mxCell>
        <mxCell id="bLF5GKP89D4P4g6-5xL7-112" value="medoid posn =&amp;nbsp;&lt;br&gt;potential posn" style="shape=parallelogram;perimeter=parallelogramPerimeter;whiteSpace=wrap;html=1;fixedSize=1;" vertex="1" parent="1">
          <mxGeometry x="2260" y="1235" width="120" height="60" as="geometry" />
        </mxCell>
        <mxCell id="bLF5GKP89D4P4g6-5xL7-139" style="edgeStyle=orthogonalEdgeStyle;rounded=0;orthogonalLoop=1;jettySize=auto;html=1;exitX=1;exitY=0.5;exitDx=0;exitDy=0;entryX=1;entryY=0.5;entryDx=0;entryDy=0;" edge="1" parent="1" source="bLF5GKP89D4P4g6-5xL7-115" target="bLF5GKP89D4P4g6-5xL7-118">
          <mxGeometry relative="1" as="geometry">
            <Array as="points">
              <mxPoint x="2410" y="985" />
              <mxPoint x="2410" y="470" />
            </Array>
          </mxGeometry>
        </mxCell>
        <mxCell id="bLF5GKP89D4P4g6-5xL7-146" style="edgeStyle=orthogonalEdgeStyle;rounded=0;orthogonalLoop=1;jettySize=auto;html=1;exitX=0.5;exitY=1;exitDx=0;exitDy=0;entryX=0.5;entryY=0;entryDx=0;entryDy=0;" edge="1" parent="1" source="bLF5GKP89D4P4g6-5xL7-115" target="bLF5GKP89D4P4g6-5xL7-105">
          <mxGeometry relative="1" as="geometry" />
        </mxCell>
        <mxCell id="bLF5GKP89D4P4g6-5xL7-115" value="Have all data&lt;br&gt;objects been iterated&lt;br&gt;through" style="rhombus;whiteSpace=wrap;html=1;" vertex="1" parent="1">
          <mxGeometry x="2020" y="910" width="170" height="150" as="geometry" />
        </mxCell>
        <mxCell id="bLF5GKP89D4P4g6-5xL7-116" value="Yes" style="text;html=1;strokeColor=none;fillColor=none;align=center;verticalAlign=middle;whiteSpace=wrap;rounded=0;" vertex="1" parent="1">
          <mxGeometry x="2190" y="1540" width="60" height="30" as="geometry" />
        </mxCell>
        <mxCell id="bLF5GKP89D4P4g6-5xL7-138" style="edgeStyle=orthogonalEdgeStyle;rounded=0;orthogonalLoop=1;jettySize=auto;html=1;exitX=0.5;exitY=1;exitDx=0;exitDy=0;entryX=0.5;entryY=0;entryDx=0;entryDy=0;" edge="1" parent="1" source="bLF5GKP89D4P4g6-5xL7-118" target="bLF5GKP89D4P4g6-5xL7-123">
          <mxGeometry relative="1" as="geometry" />
        </mxCell>
        <mxCell id="bLF5GKP89D4P4g6-5xL7-118" value="Iterate through each&lt;br&gt;data object" style="rounded=0;whiteSpace=wrap;html=1;" vertex="1" parent="1">
          <mxGeometry x="2045" y="440" width="120" height="60" as="geometry" />
        </mxCell>
        <mxCell id="bLF5GKP89D4P4g6-5xL7-119" value="No" style="text;html=1;strokeColor=none;fillColor=none;align=center;verticalAlign=middle;whiteSpace=wrap;rounded=0;" vertex="1" parent="1">
          <mxGeometry x="2060" y="1330" width="60" height="30" as="geometry" />
        </mxCell>
        <mxCell id="bLF5GKP89D4P4g6-5xL7-120" value="No" style="text;html=1;strokeColor=none;fillColor=none;align=center;verticalAlign=middle;whiteSpace=wrap;rounded=0;" vertex="1" parent="1">
          <mxGeometry x="2100" y="1640" width="60" height="30" as="geometry" />
        </mxCell>
        <mxCell id="bLF5GKP89D4P4g6-5xL7-127" style="edgeStyle=orthogonalEdgeStyle;rounded=0;orthogonalLoop=1;jettySize=auto;html=1;exitX=1;exitY=0.5;exitDx=0;exitDy=0;entryX=0.5;entryY=0;entryDx=0;entryDy=0;" edge="1" parent="1" source="bLF5GKP89D4P4g6-5xL7-123" target="bLF5GKP89D4P4g6-5xL7-125">
          <mxGeometry relative="1" as="geometry" />
        </mxCell>
        <mxCell id="bLF5GKP89D4P4g6-5xL7-134" style="edgeStyle=orthogonalEdgeStyle;rounded=0;orthogonalLoop=1;jettySize=auto;html=1;exitX=0.5;exitY=1;exitDx=0;exitDy=0;entryX=0.5;entryY=0;entryDx=0;entryDy=0;" edge="1" parent="1" source="bLF5GKP89D4P4g6-5xL7-123" target="bLF5GKP89D4P4g6-5xL7-115">
          <mxGeometry relative="1" as="geometry" />
        </mxCell>
        <mxCell id="bLF5GKP89D4P4g6-5xL7-123" value="does the data object&lt;br&gt;belong to the &lt;br&gt;current group?" style="rhombus;whiteSpace=wrap;html=1;" vertex="1" parent="1">
          <mxGeometry x="2020" y="520" width="170" height="150" as="geometry" />
        </mxCell>
        <mxCell id="bLF5GKP89D4P4g6-5xL7-169" style="edgeStyle=orthogonalEdgeStyle;rounded=0;orthogonalLoop=1;jettySize=auto;html=1;exitX=0.5;exitY=1;exitDx=0;exitDy=0;entryX=0.5;entryY=0;entryDx=0;entryDy=0;" edge="1" parent="1" source="bLF5GKP89D4P4g6-5xL7-125" target="bLF5GKP89D4P4g6-5xL7-126">
          <mxGeometry relative="1" as="geometry" />
        </mxCell>
        <mxCell id="bLF5GKP89D4P4g6-5xL7-125" value="Add posnX to&lt;br&gt;sum of &lt;br&gt;groupSumX" style="shape=parallelogram;perimeter=parallelogramPerimeter;whiteSpace=wrap;html=1;fixedSize=1;" vertex="1" parent="1">
          <mxGeometry x="2240" y="645" width="120" height="60" as="geometry" />
        </mxCell>
        <mxCell id="bLF5GKP89D4P4g6-5xL7-126" value="Add posnY to&lt;br&gt;sum of &lt;br&gt;groupSumY" style="shape=parallelogram;perimeter=parallelogramPerimeter;whiteSpace=wrap;html=1;fixedSize=1;" vertex="1" parent="1">
          <mxGeometry x="2240" y="730" width="120" height="60" as="geometry" />
        </mxCell>
        <mxCell id="bLF5GKP89D4P4g6-5xL7-128" value="Yes" style="text;html=1;strokeColor=none;fillColor=none;align=center;verticalAlign=middle;whiteSpace=wrap;rounded=0;" vertex="1" parent="1">
          <mxGeometry x="2190" y="570" width="60" height="30" as="geometry" />
        </mxCell>
        <mxCell id="bLF5GKP89D4P4g6-5xL7-135" style="edgeStyle=orthogonalEdgeStyle;rounded=0;orthogonalLoop=1;jettySize=auto;html=1;exitX=0.5;exitY=1;exitDx=0;exitDy=0;entryX=0.5;entryY=0;entryDx=0;entryDy=0;" edge="1" parent="1" source="bLF5GKP89D4P4g6-5xL7-130" target="bLF5GKP89D4P4g6-5xL7-115">
          <mxGeometry relative="1" as="geometry">
            <Array as="points">
              <mxPoint x="2300" y="870" />
              <mxPoint x="2300" y="890" />
              <mxPoint x="2105" y="890" />
            </Array>
          </mxGeometry>
        </mxCell>
        <mxCell id="bLF5GKP89D4P4g6-5xL7-130" value="Add 1 to&lt;br&gt;total in group" style="shape=parallelogram;perimeter=parallelogramPerimeter;whiteSpace=wrap;html=1;fixedSize=1;" vertex="1" parent="1">
          <mxGeometry x="2230" y="810" width="120" height="60" as="geometry" />
        </mxCell>
        <mxCell id="bLF5GKP89D4P4g6-5xL7-141" style="edgeStyle=orthogonalEdgeStyle;rounded=0;orthogonalLoop=1;jettySize=auto;html=1;exitX=0.5;exitY=1;exitDx=0;exitDy=0;entryX=0.5;entryY=0;entryDx=0;entryDy=0;" edge="1" parent="1" source="bLF5GKP89D4P4g6-5xL7-140" target="bLF5GKP89D4P4g6-5xL7-110">
          <mxGeometry relative="1" as="geometry" />
        </mxCell>
        <mxCell id="bLF5GKP89D4P4g6-5xL7-140" value="add one to &lt;br&gt;current group" style="shape=parallelogram;perimeter=parallelogramPerimeter;whiteSpace=wrap;html=1;fixedSize=1;" vertex="1" parent="1">
          <mxGeometry x="2045" y="1400" width="120" height="60" as="geometry" />
        </mxCell>
        <mxCell id="bLF5GKP89D4P4g6-5xL7-149" style="edgeStyle=orthogonalEdgeStyle;rounded=0;orthogonalLoop=1;jettySize=auto;html=1;exitX=1;exitY=0.5;exitDx=0;exitDy=0;" edge="1" parent="1" source="bLF5GKP89D4P4g6-5xL7-144" target="bLF5GKP89D4P4g6-5xL7-112">
          <mxGeometry relative="1" as="geometry" />
        </mxCell>
        <mxCell id="bLF5GKP89D4P4g6-5xL7-150" style="edgeStyle=orthogonalEdgeStyle;rounded=0;orthogonalLoop=1;jettySize=auto;html=1;exitX=0.5;exitY=1;exitDx=0;exitDy=0;entryX=0.5;entryY=0;entryDx=0;entryDy=0;" edge="1" parent="1" source="bLF5GKP89D4P4g6-5xL7-144" target="bLF5GKP89D4P4g6-5xL7-140">
          <mxGeometry relative="1" as="geometry" />
        </mxCell>
        <mxCell id="bLF5GKP89D4P4g6-5xL7-144" value="is potential medoid posn&lt;br&gt;different from current&lt;br&gt;group medoid posn" style="rhombus;whiteSpace=wrap;html=1;" vertex="1" parent="1">
          <mxGeometry x="2020" y="1190" width="170" height="150" as="geometry" />
        </mxCell>
        <mxCell id="bLF5GKP89D4P4g6-5xL7-160" style="edgeStyle=orthogonalEdgeStyle;rounded=0;orthogonalLoop=1;jettySize=auto;html=1;exitX=0.5;exitY=0;exitDx=0;exitDy=0;entryX=0.5;entryY=0;entryDx=0;entryDy=0;" edge="1" parent="1" source="bLF5GKP89D4P4g6-5xL7-153" target="bLF5GKP89D4P4g6-5xL7-118">
          <mxGeometry relative="1" as="geometry" />
        </mxCell>
        <mxCell id="bLF5GKP89D4P4g6-5xL7-153" value="set current group&lt;br&gt;to 0" style="shape=parallelogram;perimeter=parallelogramPerimeter;whiteSpace=wrap;html=1;fixedSize=1;" vertex="1" parent="1">
          <mxGeometry x="2460" y="615" width="120" height="60" as="geometry" />
        </mxCell>
        <mxCell id="bLF5GKP89D4P4g6-5xL7-163" style="edgeStyle=orthogonalEdgeStyle;rounded=0;orthogonalLoop=1;jettySize=auto;html=1;exitX=0.5;exitY=0;exitDx=0;exitDy=0;entryX=0.5;entryY=1;entryDx=0;entryDy=0;" edge="1" parent="1" source="bLF5GKP89D4P4g6-5xL7-155" target="bLF5GKP89D4P4g6-5xL7-153">
          <mxGeometry relative="1" as="geometry" />
        </mxCell>
        <mxCell id="bLF5GKP89D4P4g6-5xL7-155" value="set &lt;br&gt;totalNoInGroup&lt;br style=&quot;border-color: var(--border-color);&quot;&gt;to 0" style="shape=parallelogram;perimeter=parallelogramPerimeter;whiteSpace=wrap;html=1;fixedSize=1;" vertex="1" parent="1">
          <mxGeometry x="2460" y="695" width="120" height="60" as="geometry" />
        </mxCell>
        <mxCell id="bLF5GKP89D4P4g6-5xL7-162" style="edgeStyle=orthogonalEdgeStyle;rounded=0;orthogonalLoop=1;jettySize=auto;html=1;exitX=0.5;exitY=0;exitDx=0;exitDy=0;entryX=0.5;entryY=1;entryDx=0;entryDy=0;" edge="1" parent="1" source="bLF5GKP89D4P4g6-5xL7-157" target="bLF5GKP89D4P4g6-5xL7-155">
          <mxGeometry relative="1" as="geometry" />
        </mxCell>
        <mxCell id="bLF5GKP89D4P4g6-5xL7-157" value="set groupSumX&lt;br style=&quot;border-color: var(--border-color);&quot;&gt;to 0" style="shape=parallelogram;perimeter=parallelogramPerimeter;whiteSpace=wrap;html=1;fixedSize=1;" vertex="1" parent="1">
          <mxGeometry x="2460" y="775" width="120" height="60" as="geometry" />
        </mxCell>
        <mxCell id="bLF5GKP89D4P4g6-5xL7-161" style="edgeStyle=orthogonalEdgeStyle;rounded=0;orthogonalLoop=1;jettySize=auto;html=1;exitX=0.5;exitY=0;exitDx=0;exitDy=0;entryX=0.5;entryY=1;entryDx=0;entryDy=0;" edge="1" parent="1" source="bLF5GKP89D4P4g6-5xL7-158" target="bLF5GKP89D4P4g6-5xL7-157">
          <mxGeometry relative="1" as="geometry" />
        </mxCell>
        <mxCell id="bLF5GKP89D4P4g6-5xL7-158" value="set groupSumY&lt;br style=&quot;border-color: var(--border-color);&quot;&gt;to 0" style="shape=parallelogram;perimeter=parallelogramPerimeter;whiteSpace=wrap;html=1;fixedSize=1;" vertex="1" parent="1">
          <mxGeometry x="2460" y="855" width="120" height="60" as="geometry" />
        </mxCell>
        <mxCell id="bLF5GKP89D4P4g6-5xL7-164" value="End" style="ellipse;whiteSpace=wrap;html=1;" vertex="1" parent="1">
          <mxGeometry x="2045" y="1670" width="120" height="80" as="geometry" />
        </mxCell>
        <mxCell id="bLF5GKP89D4P4g6-5xL7-166" value="Yes" style="text;html=1;strokeColor=none;fillColor=none;align=center;verticalAlign=middle;whiteSpace=wrap;rounded=0;" vertex="1" parent="1">
          <mxGeometry x="2180" y="1245" width="60" height="30" as="geometry" />
        </mxCell>
        <mxCell id="bLF5GKP89D4P4g6-5xL7-170" style="edgeStyle=orthogonalEdgeStyle;rounded=0;orthogonalLoop=1;jettySize=auto;html=1;exitX=0.5;exitY=1;exitDx=0;exitDy=0;entryX=0.576;entryY=0.021;entryDx=0;entryDy=0;entryPerimeter=0;" edge="1" parent="1" source="bLF5GKP89D4P4g6-5xL7-126" target="bLF5GKP89D4P4g6-5xL7-130">
          <mxGeometry relative="1" as="geometry" />
        </mxCell>
        <mxCell id="bLF5GKP89D4P4g6-5xL7-171" style="edgeStyle=orthogonalEdgeStyle;rounded=0;orthogonalLoop=1;jettySize=auto;html=1;exitX=0.5;exitY=1;exitDx=0;exitDy=0;entryX=0.5;entryY=0;entryDx=0;entryDy=0;" edge="1" parent="1" source="bLF5GKP89D4P4g6-5xL7-172" target="bLF5GKP89D4P4g6-5xL7-174">
          <mxGeometry relative="1" as="geometry" />
        </mxCell>
        <mxCell id="bLF5GKP89D4P4g6-5xL7-172" value="Calculate Median" style="rounded=1;whiteSpace=wrap;html=1;" vertex="1" parent="1">
          <mxGeometry x="2710" y="40" width="120" height="60" as="geometry" />
        </mxCell>
        <mxCell id="bLF5GKP89D4P4g6-5xL7-173" style="edgeStyle=orthogonalEdgeStyle;rounded=0;orthogonalLoop=1;jettySize=auto;html=1;exitX=0.5;exitY=1;exitDx=0;exitDy=0;entryX=0.5;entryY=0;entryDx=0;entryDy=0;" edge="1" parent="1" source="bLF5GKP89D4P4g6-5xL7-174" target="bLF5GKP89D4P4g6-5xL7-176">
          <mxGeometry relative="1" as="geometry" />
        </mxCell>
        <mxCell id="bLF5GKP89D4P4g6-5xL7-174" value="sumOfX = &lt;br&gt;function&lt;br&gt;argument" style="shape=parallelogram;perimeter=parallelogramPerimeter;whiteSpace=wrap;html=1;fixedSize=1;" vertex="1" parent="1">
          <mxGeometry x="2710" y="120" width="120" height="60" as="geometry" />
        </mxCell>
        <mxCell id="bLF5GKP89D4P4g6-5xL7-175" style="edgeStyle=orthogonalEdgeStyle;rounded=0;orthogonalLoop=1;jettySize=auto;html=1;exitX=0.5;exitY=1;exitDx=0;exitDy=0;entryX=0.5;entryY=0;entryDx=0;entryDy=0;" edge="1" parent="1" source="bLF5GKP89D4P4g6-5xL7-176" target="bLF5GKP89D4P4g6-5xL7-177">
          <mxGeometry relative="1" as="geometry" />
        </mxCell>
        <mxCell id="bLF5GKP89D4P4g6-5xL7-176" value="sumOfY = &lt;br&gt;function&lt;br&gt;argument" style="shape=parallelogram;perimeter=parallelogramPerimeter;whiteSpace=wrap;html=1;fixedSize=1;" vertex="1" parent="1">
          <mxGeometry x="2710" y="200" width="120" height="60" as="geometry" />
        </mxCell>
        <mxCell id="bLF5GKP89D4P4g6-5xL7-182" style="edgeStyle=orthogonalEdgeStyle;rounded=0;orthogonalLoop=1;jettySize=auto;html=1;exitX=0.5;exitY=1;exitDx=0;exitDy=0;entryX=0.5;entryY=0;entryDx=0;entryDy=0;" edge="1" parent="1" source="bLF5GKP89D4P4g6-5xL7-177" target="bLF5GKP89D4P4g6-5xL7-178">
          <mxGeometry relative="1" as="geometry" />
        </mxCell>
        <mxCell id="bLF5GKP89D4P4g6-5xL7-177" value="totalPoints = &lt;br&gt;function&lt;br&gt;argument" style="shape=parallelogram;perimeter=parallelogramPerimeter;whiteSpace=wrap;html=1;fixedSize=1;" vertex="1" parent="1">
          <mxGeometry x="2710" y="280" width="120" height="60" as="geometry" />
        </mxCell>
        <mxCell id="bLF5GKP89D4P4g6-5xL7-186" style="edgeStyle=orthogonalEdgeStyle;rounded=0;orthogonalLoop=1;jettySize=auto;html=1;exitX=0.5;exitY=1;exitDx=0;exitDy=0;entryX=0.5;entryY=0;entryDx=0;entryDy=0;" edge="1" parent="1" source="bLF5GKP89D4P4g6-5xL7-178" target="bLF5GKP89D4P4g6-5xL7-179">
          <mxGeometry relative="1" as="geometry" />
        </mxCell>
        <mxCell id="bLF5GKP89D4P4g6-5xL7-178" value="medianPosnX&lt;br&gt;=&lt;br&gt;sumOfX/totalPoints" style="shape=parallelogram;perimeter=parallelogramPerimeter;whiteSpace=wrap;html=1;fixedSize=1;" vertex="1" parent="1">
          <mxGeometry x="2695" y="360" width="150" height="60" as="geometry" />
        </mxCell>
        <mxCell id="bLF5GKP89D4P4g6-5xL7-184" style="edgeStyle=orthogonalEdgeStyle;rounded=0;orthogonalLoop=1;jettySize=auto;html=1;exitX=0.5;exitY=1;exitDx=0;exitDy=0;entryX=0.5;entryY=0;entryDx=0;entryDy=0;" edge="1" parent="1" source="bLF5GKP89D4P4g6-5xL7-179" target="bLF5GKP89D4P4g6-5xL7-180">
          <mxGeometry relative="1" as="geometry" />
        </mxCell>
        <mxCell id="bLF5GKP89D4P4g6-5xL7-179" value="medianPosnY&lt;br&gt;=&lt;br&gt;sumOfY/totalPoints" style="shape=parallelogram;perimeter=parallelogramPerimeter;whiteSpace=wrap;html=1;fixedSize=1;" vertex="1" parent="1">
          <mxGeometry x="2690" y="440" width="150" height="60" as="geometry" />
        </mxCell>
        <mxCell id="bLF5GKP89D4P4g6-5xL7-188" style="edgeStyle=orthogonalEdgeStyle;rounded=0;orthogonalLoop=1;jettySize=auto;html=1;exitX=0.5;exitY=1;exitDx=0;exitDy=0;entryX=0.5;entryY=0;entryDx=0;entryDy=0;" edge="1" parent="1" source="bLF5GKP89D4P4g6-5xL7-180" target="bLF5GKP89D4P4g6-5xL7-181">
          <mxGeometry relative="1" as="geometry" />
        </mxCell>
        <mxCell id="bLF5GKP89D4P4g6-5xL7-180" value="Returns:&lt;br&gt;medianPosnX, Y" style="rounded=0;whiteSpace=wrap;html=1;" vertex="1" parent="1">
          <mxGeometry x="2705" y="525" width="120" height="60" as="geometry" />
        </mxCell>
        <mxCell id="bLF5GKP89D4P4g6-5xL7-181" value="End" style="ellipse;whiteSpace=wrap;html=1;" vertex="1" parent="1">
          <mxGeometry x="2705" y="610" width="120" height="80" as="geometry" />
        </mxCell>
        <mxCell id="bLF5GKP89D4P4g6-5xL7-191" style="edgeStyle=orthogonalEdgeStyle;rounded=0;orthogonalLoop=1;jettySize=auto;html=1;exitX=0.5;exitY=1;exitDx=0;exitDy=0;entryX=0.5;entryY=0;entryDx=0;entryDy=0;" edge="1" parent="1" source="bLF5GKP89D4P4g6-5xL7-189" target="bLF5GKP89D4P4g6-5xL7-88">
          <mxGeometry relative="1" as="geometry" />
        </mxCell>
        <mxCell id="bLF5GKP89D4P4g6-5xL7-189" value="Returns:&lt;br&gt;Euclidean" style="rounded=0;whiteSpace=wrap;html=1;" vertex="1" parent="1">
          <mxGeometry x="1750" y="540" width="120" height="60" as="geometry" />
        </mxCell>
      </root>
    </mxGraphModel>
  </diagram>
</mxfile>
